<?xml version="1.0" encoding="UTF-8"?>
<svg version="1.1" xmlns="http://www.w3.org/2000/svg" width="428" height="207">
<path d="M0 0 C3.10342715 1.8239904 3.84055945 2.52167834 5 6 C7.38732091 35.33650118 -14.49157704 63.22955582 -32.19140625 84.65234375 C-39.35895941 92.8263465 -47.27013472 100.3626483 -55 108 C-44.94875141 109.12274585 -39.26552441 106.50205088 -31 101 C-29.67922189 100.30879279 -28.35069525 99.6307492 -27 99 C-27.226875 97.989375 -27.45375 96.97875 -27.6875 95.9375 C-28.1493904 90.11768097 -26.06090315 86.1808336 -22.625 81.625 C-19.92156923 78.92156923 -18.74497454 78.21399855 -15 78 C-14.94714844 77.34515625 -14.89429687 76.6903125 -14.83984375 76.015625 C-13.62486783 71.65301379 -11.15902073 68.41878152 -8.5625 64.75 C-8.05912109 64.0178125 -7.55574219 63.285625 -7.03710938 62.53125 C-3.27725213 57.13862607 -3.27725213 57.13862607 -1 56 C2 55.8125 2 55.8125 5 56 C7 58 7 58 7.1953125 59.9453125 C7.13020833 61.96354167 7.06510417 63.98177083 7 66 C7.90363281 65.95359375 8.80726563 65.9071875 9.73828125 65.859375 C10.91777344 65.82328125 12.09726563 65.7871875 13.3125 65.75 C14.48425781 65.70359375 15.65601563 65.6571875 16.86328125 65.609375 C20 66 20 66 21.8203125 67.56640625 C23.35570982 70.73379873 23.94442312 73.7227376 24.5625 77.1875 C24.81481941 78.53390756 25.06742258 79.88026198 25.3203125 81.2265625 C25.71331906 83.40842653 26.10480501 85.59056792 26.4921875 87.7734375 C27.62255526 93.58392442 29.40644867 97.92515894 34.1875 101.75 C38.0184196 103.45263093 41.89908172 104.21525638 46 105 C46.02723145 104.3824585 46.05446289 103.76491699 46.08251953 103.12866211 C46.69269166 93.42114645 48.51392003 83.9794771 50.32861328 74.43725586 C50.87294276 71.57332394 51.40791738 68.70776585 51.94140625 65.84179688 C53.38599614 58.13379379 54.84475944 50.44866051 56.671875 42.8203125 C57.98080371 37.34189122 58.72945691 31.90157192 59.375 26.3125 C61.3775706 10.6224294 61.3775706 10.6224294 67 5 C68.8125 4.8671875 68.8125 4.8671875 71 4.875 C71.721875 4.87242188 72.44375 4.86984375 73.1875 4.8671875 C75 5 75 5 76 6 C76.98367261 14.79117386 74.80540452 22.62818108 72.375 31 C71.63149112 33.64984507 70.90059919 36.30308652 70.171875 38.95703125 C69.8953862 39.95909355 69.8953862 39.95909355 69.61331177 40.98139954 C67.73861551 47.83574155 66.14798309 54.746979 64.625 61.6875 C64.38700684 62.76580078 64.14901367 63.84410156 63.90380859 64.95507812 C60.95797844 77.36062385 60.95797844 77.36062385 60 90 C60.95261719 89.31292969 61.90523437 88.62585938 62.88671875 87.91796875 C64.15357271 87.00771072 65.42050388 86.09756015 66.6875 85.1875 C67.31333984 84.73568359 67.93917969 84.28386719 68.58398438 83.81835938 C70.37931075 82.53061218 72.18619687 81.26154925 74 80 C74.83015625 79.42121094 75.6603125 78.84242187 76.515625 78.24609375 C79.7039248 76.6469308 82.52381099 76.28431208 86.0625 75.875 C87.27035156 75.72804688 88.47820312 75.58109375 89.72265625 75.4296875 C91.14814682 75.28359365 92.57396283 75.14065828 94 75 C94.8652832 74.90662354 95.73056641 74.81324707 96.62207031 74.71704102 C105.63861401 73.83498783 114.61454713 73.98314059 123.66015625 74.24682617 C132.34812244 74.48641483 139.24529378 74.09864362 147 70 C148.35351562 69.30003906 148.35351562 69.30003906 149.734375 68.5859375 C150.73210937 67.98652344 150.73210937 67.98652344 151.75 67.375 C160.14740837 62.60810562 160.14740837 62.60810562 165.25 63.6875 C168 65 168 65 170 68 C171.11619262 72.01829344 171.02921653 75.85125226 171 80 C175.071006 80.05009283 179.14188832 80.08604089 183.21313477 80.10986328 C184.59304944 80.11981266 185.97294365 80.13337705 187.3527832 80.15087891 C195.01065147 80.24545483 202.25868021 80.0933961 209.75463867 78.43310547 C212 78 212 78 216 78 C216 77.34 216 76.68 216 76 C219.1657213 75.03852522 222.33274362 74.08140467 225.5 73.125 C226.386875 72.85558594 227.27375 72.58617188 228.1875 72.30859375 C232.05856397 71.14158182 235.88824742 70.02551741 239.83203125 69.125 C247.02618243 67.37969492 253.85918947 64.21518494 260.70898438 61.45703125 C261.82982422 61.01488281 262.95066406 60.57273438 264.10546875 60.1171875 C265.11762451 59.71097168 266.12978027 59.30475586 267.17260742 58.88623047 C270.00016617 57.99994792 272.06172291 57.68875673 275 58 C277.22592219 60.07241032 277.8969195 61.54186443 278.5625 64.5 C278 67 278 67 275.52197266 68.91918945 C271.59095961 71.39245123 267.39758287 73.09861431 263.0859375 74.79296875 C262.21746185 75.13668015 261.34898621 75.48039154 260.45419312 75.83451843 C250.98678083 79.50479524 241.33129941 82.51341754 231.60693359 85.42016602 C228.60295484 86.31909694 225.60408664 87.23375382 222.60546875 88.15039062 C190.71895278 97.8244898 190.71895278 97.8244898 176 94 C176.70576172 95.38058594 176.70576172 95.38058594 177.42578125 96.7890625 C185.42139448 112.86163655 189.10268861 129.71879044 183.2578125 147.22265625 C179.3939347 156.09589775 171.22754634 160.89581715 162.75 164.75 C161.42850952 165.36572876 161.42850952 165.36572876 160.08032227 165.99389648 C118.72112819 184.8988249 118.72112819 184.8988249 105.875 181 C100.5982496 178.81104743 96.52805799 174.05611598 94 169 C92.2077429 136.56703985 108.25539066 112.94817446 127 88 C99.38428751 86.20154523 99.38428751 86.20154523 74.9375 96.37890625 C72.75151994 98.20790166 70.67655632 99.06599337 68 100 C68.226875 101.051875 68.45375 102.10375 68.6875 103.1875 C69 107 69 107 68.0625 109.6875 C62.68730752 115.71423097 54.77811952 117.31461163 47 118 C37.97600682 118.21013179 30.04032742 116.475555 23.15234375 110.359375 C15.26991866 101.76036581 13.57400497 90.28886842 14 79 C10.04 79.66 6.08 80.32 2 81 C1.814375 81.99 1.62875 82.98 1.4375 84 C-1.04521579 92.5926162 -10.2610469 99.47198011 -16.375 105.625 C-17.17421875 106.44484375 -17.9734375 107.2646875 -18.796875 108.109375 C-26.72998515 116.09383214 -33.56500221 122.19990996 -45.0625 122.25 C-46.21625122 122.25592163 -46.21625122 122.25592163 -47.39331055 122.26196289 C-53.16937171 122.20274315 -57.60268286 121.10403889 -63 119 C-66.61561337 119.3446791 -68.15943423 120.88413575 -70.5625 123.5 C-75.34896227 128.47294781 -80.61759113 132.6940729 -86 137 C-86.84949219 137.71671875 -87.69898438 138.4334375 -88.57421875 139.171875 C-97.68356463 146.77968035 -107.66110316 152.54864916 -119.85546875 152.2578125 C-124.38296816 151.71352295 -128.18681935 149.5509312 -131 146 C-131.36328125 143.58984375 -131.36328125 143.58984375 -131.3125 140.9375 C-131.30863281 140.05964844 -131.30476562 139.18179688 -131.30078125 138.27734375 C-131 136 -131 136 -129 134 C-125.875 133.875 -125.875 133.875 -123 134 C-122.505 136.475 -122.505 136.475 -122 139 C-106.00994214 136.54896923 -96.44871559 128.88608569 -84.7019043 118.49926758 C-82.89523358 116.90770756 -81.07795261 115.32942706 -79.25390625 113.7578125 C-78.69775635 113.27844238 -78.14160645 112.79907227 -77.56860352 112.30517578 C-76.15268689 111.127045 -74.67286473 110.02676747 -73.1875 108.9375 C-69.64479359 104.18015139 -69.70448013 98.77797296 -69 93 C-63.88800238 60.5423165 -43.00908215 22.68427831 -16.6875 2.375 C-11.50779334 -0.84407826 -5.92224597 -1.10560019 0 0 Z M-19.5703125 22.45703125 C-31.92122682 35.67909157 -40.39830527 51.21953118 -49 67 C-49.4439209 67.80566406 -49.8878418 68.61132812 -50.34521484 69.44140625 C-54.60097637 77.21911901 -58 83.90953971 -58 93 C-40.74232136 83.70250524 -29.83862759 63.93619644 -20.6875 47.4375 C-20.34874847 46.8290625 -20.00999695 46.220625 -19.66098022 45.59375 C-10.78421571 30.0318941 -10.78421571 30.0318941 -6 13 C-10.47465139 13 -16.56377489 19.58300062 -19.5703125 22.45703125 Z M157 77 C157 78.32 157 79.64 157 81 C157.99 81 158.98 81 160 81 C160 79.68 160 78.36 160 77 C159.01 77 158.02 77 157 77 Z M140.01953125 90.765625 C134.96950286 96.45025873 130.68084669 102.20310171 126.62890625 108.62890625 C125 111 125 111 123 112 C121.94340175 113.94953862 120.95243342 115.93500873 120 117.9375 C117.2095672 123.7904328 117.2095672 123.7904328 115 126 C113.97487073 128.42809189 113.02631093 130.8389086 112.125 133.3125 C111.86251465 134.02873535 111.6000293 134.7449707 111.32958984 135.48291016 C110.54279935 137.65175709 109.76917984 139.82485204 109 142 C108.5771875 143.18722656 108.154375 144.37445313 107.71875 145.59765625 C104.50776657 155.12293436 104.50776657 155.12293436 105 165 C107.23844394 167.96547946 107.23844394 167.96547946 111 169 C116.45540472 169.25082321 121.00529283 168.21674314 125.90625 165.8125 C128.79244609 164.69248361 131.71115614 164.20634404 134.75 163.625 C145.83042175 161.35028908 154.7356481 156.35386967 164 150 C164.85335937 149.43152344 165.70671875 148.86304688 166.5859375 148.27734375 C172.9386786 143.76463608 175.03251766 140.11029133 176.45703125 132.5859375 C177.82775595 122.85529841 175.56516272 115.90838913 170 108 C169.44828125 107.15953125 168.8965625 106.3190625 168.328125 105.453125 C162.01926354 96.01774813 156.01668843 91.84558042 145 89 C141.93101005 88.66727015 141.93101005 88.66727015 140.01953125 90.765625 Z " fill="#0D0D0D" transform="translate(141,11)"/>
</svg>
